<svg xmlns="http://www.w3.org/2000/svg" width="24" height="16" viewBox="0 0 60 40">
  <rect width="60" height="40" fill="#012169"/>
  <polygon points="0,0 10,0 60,30 60,40 50,40 0,10" fill="#FFFFFF"/>
  <polygon points="0,40 0,30 50,0 60,0 60,10 10,40" fill="#FFFFFF"/>
  <polygon points="0,0 6,0 60,32 60,40 54,40 0,8" fill="#C8102E"/>
  <polygon points="0,40 6,40 60,8 60,0 54,0 0,32" fill="#C8102E"/>
  <rect x="26" y="0" width="8" height="40" fill="#FFFFFF"/>
  <rect x="0" y="16" width="60" height="8" fill="#FFFFFF"/>
  <rect x="28" y="0" width="4" height="40" fill="#C8102E"/>
  <rect x="0" y="18" width="60" height="4" fill="#C8102E"/>
</svg>